<svg width="1770" height="1589" viewBox="0 0 1770 1589" fill="none" xmlns="http://www.w3.org/2000/svg">

<defs>
<linearGradient id="paint0_linear_11_3" x1="885" y1="1589" x2="885" y2="573" gradientUnits="userSpaceOnUse">
<stop stop-color="#FF7B43"/>
<stop offset="1" stop-color="#FFD74B"/>
</linearGradient>
<linearGradient id="paint1_linear_11_3" x1="885" y1="1589" x2="885" y2="573" gradientUnits="userSpaceOnUse">
<stop stop-color="#FF7B43"/>
<stop offset="1" stop-color="#FFD74B"/>
</linearGradient>
<linearGradient id="paint2_linear_11_3" x1="885" y1="1589" x2="885" y2="573" gradientUnits="userSpaceOnUse">
<stop stop-color="#FF7B43"/>
<stop offset="1" stop-color="#FFD74B"/>
</linearGradient>
<linearGradient id="paint3_linear_11_3" x1="885" y1="1589" x2="885" y2="573" gradientUnits="userSpaceOnUse">
<stop stop-color="#FF7B43"/>
<stop offset="1" stop-color="#FFD74B"/>
</linearGradient>
<linearGradient id="paint4_linear_11_3" x1="885" y1="1589" x2="885" y2="573" gradientUnits="userSpaceOnUse">
<stop stop-color="#FF7B43"/>
<stop offset="1" stop-color="#FFD74B"/>
</linearGradient>
<linearGradient id="paint5_linear_11_3" x1="885" y1="1589" x2="885" y2="573" gradientUnits="userSpaceOnUse">
<stop stop-color="#FF7B43"/>
<stop offset="1" stop-color="#FFD74B"/>
</linearGradient>
<linearGradient id="paint6_linear_11_3" x1="885" y1="1589" x2="885" y2="573" gradientUnits="userSpaceOnUse">
<stop stop-color="#FF7B43"/>
<stop offset="1" stop-color="#FFD74B"/>
</linearGradient>
<linearGradient id="paint7_linear_11_3" x1="885" y1="1589" x2="885" y2="573" gradientUnits="userSpaceOnUse">
<stop stop-color="#FF7B43"/>
<stop offset="1" stop-color="#FFD74B"/>
</linearGradient>
<linearGradient id="paint8_linear_11_3" x1="885" y1="1589" x2="885" y2="573" gradientUnits="userSpaceOnUse">
<stop stop-color="#FF7B43"/>
<stop offset="1" stop-color="#FFD74B"/>
</linearGradient>
<linearGradient id="paint9_linear_11_3" x1="885" y1="1589" x2="885" y2="573" gradientUnits="userSpaceOnUse">
<stop stop-color="#FF7B43"/>
<stop offset="1" stop-color="#FFD74B"/>
</linearGradient>
<linearGradient id="paint10_linear_11_3" x1="885" y1="1589" x2="885" y2="573" gradientUnits="userSpaceOnUse">
<stop stop-color="#FF7B43"/>
<stop offset="1" stop-color="#FFD74B"/>
</linearGradient>
<linearGradient id="paint11_linear_11_3" x1="885" y1="1589" x2="885" y2="573" gradientUnits="userSpaceOnUse">
<stop stop-color="#FF7B43"/>
<stop offset="1" stop-color="#FFD74B"/>
</linearGradient>
<linearGradient id="paint12_linear_11_3" x1="885" y1="1589" x2="885" y2="573" gradientUnits="userSpaceOnUse">
<stop stop-color="#FF7B43"/>
<stop offset="1" stop-color="#FFD74B"/>
</linearGradient>
<linearGradient id="paint13_linear_11_3" x1="885" y1="1589" x2="885" y2="573" gradientUnits="userSpaceOnUse">
<stop stop-color="#FF7B43"/>
<stop offset="1" stop-color="#FFD74B"/>
</linearGradient>
<linearGradient id="paint14_linear_11_3" x1="885" y1="1589" x2="885" y2="573" gradientUnits="userSpaceOnUse">
<stop stop-color="#FF7B43"/>
<stop offset="1" stop-color="#FFD74B"/>
</linearGradient>
<linearGradient id="paint15_linear_11_3" x1="885" y1="1589" x2="885" y2="573" gradientUnits="userSpaceOnUse">
<stop stop-color="#FF7B43"/>
<stop offset="1" stop-color="#FFD74B"/>
</linearGradient>
<linearGradient id="paint16_linear_11_3" x1="885" y1="1589" x2="885" y2="573" gradientUnits="userSpaceOnUse">
<stop stop-color="#FF7B43"/>
<stop offset="1" stop-color="#FFD74B"/>
</linearGradient>
<linearGradient id="paint17_linear_11_3" x1="885" y1="1589" x2="885" y2="573" gradientUnits="userSpaceOnUse">
<stop stop-color="#FF7B43"/>
<stop offset="1" stop-color="#FFD74B"/>
</linearGradient>
<linearGradient id="paint18_linear_11_3" x1="885" y1="1589" x2="885" y2="573" gradientUnits="userSpaceOnUse">
<stop stop-color="#FF7B43"/>
<stop offset="1" stop-color="#FFD74B"/>
</linearGradient>
<linearGradient id="paint19_linear_11_3" x1="885" y1="1589" x2="885" y2="573" gradientUnits="userSpaceOnUse">
<stop stop-color="#FF7B43"/>
<stop offset="1" stop-color="#FFD74B"/>
</linearGradient>
<linearGradient id="paint20_linear_11_3" x1="885" y1="1589" x2="885" y2="573" gradientUnits="userSpaceOnUse">
<stop stop-color="#FF7B43"/>
<stop offset="1" stop-color="#FFD74B"/>
</linearGradient>
</defs>

<path d="M825 428.5C825 493.946 770.379 547 703 547C635.621 547 581 493.946 581 428.5C581 363.054 635.621 310 703 310C770.379 310 825 363.054 825 428.5Z" fill="url(#paint0_linear_11_3)"/>
<path d="M1190 428C1190 493.17 1135.6 546 1068.5 546C1001.4 546 947 493.17 947 428C947 362.83 1001.4 310 1068.5 310C1135.6 310 1190 362.83 1190 428Z" fill="url(#paint1_linear_11_3)"/>
<path d="M968 363C925.208 408.476 847.792 408.19 805 363V494C847.792 448.524 925.208 448.81 968 494V363Z" fill="url(#paint2_linear_11_3)"/>
<path d="M825 794.5C825 859.946 770.379 913 703 913C635.621 913 581 859.946 581 794.5C581 729.054 635.621 676 703 676C770.379 676 825 729.054 825 794.5Z" fill="url(#paint3_linear_11_3)"/>
<path d="M1190 794C1190 859.17 1135.6 912 1068.5 912C1001.4 912 947 859.17 947 794C947 728.83 1001.4 676 1068.5 676C1135.6 676 1190 728.83 1190 794Z" fill="url(#paint4_linear_11_3)"/>
<path d="M968 729C925.208 774.476 847.792 774.19 805 729V860C847.792 814.524 925.208 814.81 968 860V729Z" fill="url(#paint5_linear_11_3)"/>
<path d="M825 1160.5C825 1225.95 770.379 1279 703 1279C635.621 1279 581 1225.95 581 1160.5C581 1095.05 635.621 1042 703 1042C770.379 1042 825 1095.05 825 1160.5Z" fill="url(#paint6_linear_11_3)"/>
<path d="M1190 1160C1190 1225.17 1135.6 1278 1068.5 1278C1001.4 1278 947 1225.17 947 1160C947 1094.83 1001.4 1042 1068.5 1042C1135.6 1042 1190 1094.83 1190 1160Z" fill="url(#paint7_linear_11_3)"/>
<path d="M968 1095C925.208 1140.48 847.792 1140.19 805 1095V1226C847.792 1180.52 925.208 1180.81 968 1226V1095Z" fill="url(#paint8_linear_11_3)"/>
<path d="M770 66C770 102.451 740.451 132 704 132C667.549 132 638 102.451 638 66C638 29.5492 667.549 0 704 0C740.451 0 770 29.5492 770 66Z" fill="url(#paint9_linear_11_3)"/>
<path d="M469 428C469 478.258 428.258 519 378 519C327.742 519 287 478.258 287 428C287 377.742 327.742 337 378 337C428.258 337 469 377.742 469 428Z" fill="url(#paint10_linear_11_3)"/>
<path d="M1484 428C1484 478.258 1443.26 519 1393 519C1342.74 519 1302 478.258 1302 428C1302 377.742 1342.74 337 1393 337C1443.26 337 1484 377.742 1484 428Z" fill="url(#paint11_linear_11_3)"/>
<path d="M1484 1160C1484 1210.26 1443.26 1251 1393 1251C1342.74 1251 1302 1210.26 1302 1160C1302 1109.74 1342.74 1069 1393 1069C1443.26 1069 1484 1109.74 1484 1160Z" fill="url(#paint12_linear_11_3)"/>
<path d="M469 1160C469 1210.26 428.258 1251 378 1251C327.742 1251 287 1210.26 287 1160C287 1109.74 327.742 1069 378 1069C428.258 1069 469 1109.74 469 1160Z" fill="url(#paint13_linear_11_3)"/>
<path d="M469 794C469 844.258 428.258 885 378 885C327.742 885 287 844.258 287 794C287 743.742 327.742 703 378 703C428.258 703 469 743.742 469 794Z" fill="url(#paint14_linear_11_3)"/>
<path d="M1484 794C1484 844.258 1443.26 885 1393 885C1342.74 885 1302 844.258 1302 794C1302 743.742 1342.74 703 1393 703C1443.26 703 1484 743.742 1484 794Z" fill="url(#paint15_linear_11_3)"/>
<path d="M770 1523C770 1559.45 740.451 1589 704 1589C667.549 1589 638 1559.45 638 1523C638 1486.55 667.549 1457 704 1457C740.451 1457 770 1486.55 770 1523Z" fill="url(#paint16_linear_11_3)"/>
<path d="M1135 1523C1135 1559.45 1105.45 1589 1069 1589C1032.55 1589 1003 1559.45 1003 1523C1003 1486.55 1032.55 1457 1069 1457C1105.45 1457 1135 1486.55 1135 1523Z" fill="url(#paint17_linear_11_3)"/>
<path d="M1135 66C1135 102.451 1105.45 132 1069 132C1032.55 132 1003 102.451 1003 66C1003 29.5492 1032.55 0 1069 0C1105.45 0 1135 29.5492 1135 66Z" fill="url(#paint18_linear_11_3)"/>
<path d="M1770 794C1770 830.451 1740.45 860 1704 860C1667.55 860 1638 830.451 1638 794C1638 757.549 1667.55 728 1704 728C1740.45 728 1770 757.549 1770 794Z" fill="url(#paint19_linear_11_3)"/>
<path d="M132 794C132 830.451 102.451 860 66 860C29.5492 860 0 830.451 0 794C0 757.549 29.5492 728 66 728C102.451 728 132 757.549 132 794Z" fill="url(#paint20_linear_11_3)"/>
</svg>
